<svg width="29" height="28" viewBox="0 0 29 28" fill="none" xmlns="http://www.w3.org/2000/svg">
<path fill-rule="evenodd" clip-rule="evenodd" d="M8.59127 15.54C1.25669 13.1834 1.25669 9.32172 8.59127 6.95338L19.5025 3.45338C24.3963 1.87838 27.0546 4.45672 25.4354 9.18172L21.7984 19.705C19.3575 26.7867 15.3459 26.7867 12.905 19.705L11.8296 16.5784L8.59127 15.54ZM14.6571 14.4434C14.8867 14.4434 15.1163 14.3617 15.2975 14.1867L19.8892 9.73005C20.2396 9.39172 20.2396 8.83172 19.8892 8.49338C19.5388 8.15505 18.9588 8.15505 18.6084 8.49338L14.0167 12.9501C13.6663 13.2884 13.6663 13.8484 14.0167 14.1867C14.1979 14.3617 14.4275 14.4434 14.6571 14.4434Z" fill="#292D32"/>
</svg>
