<svg width="20" height="20" viewBox="0 0 38 38" fill="none" xmlns="http://www.w3.org/2000/svg">
<path d="M30.8752 9.49982C31.3502 9.97482 31.3502 10.7665 30.8752 11.2415L8.70853 33.4082C8.23353 33.8832 7.44186 33.8832 6.96686 33.4082C6.49186 32.9332 6.49186 32.1415 6.96686 31.6665L29.1335 9.49982C29.4502 9.18315 29.7669 9.18315 30.0835 9.18315C30.4002 9.18315 30.7169 9.34149 30.8752 9.49982Z" fill="#292D32"/>
<path d="M30.0834 9.18312C30.7168 9.18312 31.3501 9.65812 31.3501 10.4498L31.3501 26.5998C31.3501 27.2331 30.8751 27.8665 30.0834 27.8665C29.2918 27.8665 28.8168 27.3915 28.8168 26.5998L28.8168 11.5581L13.7751 11.5581C13.1418 11.5581 12.5084 11.0831 12.5084 10.2915C12.5084 9.49979 13.1418 9.18312 13.7751 9.18312L30.0834 9.18312Z" fill="#292D32"/>
<path opacity="0.4" d="M32.4584 1.90002C33.0918 1.90002 33.7251 2.37502 33.7251 3.16669C33.7251 3.95835 33.2501 4.43335 32.4584 4.43335L5.54177 4.43335C4.90843 4.43335 4.2751 3.95835 4.2751 3.16669C4.2751 2.37502 4.90843 1.90002 5.54177 1.90002L32.4584 1.90002Z" fill="#292D32"/>
</svg>
