<svg width="24" height="22" viewBox="0 0 24 22" fill="none" xmlns="http://www.w3.org/2000/svg">
<path fill-rule="evenodd" clip-rule="evenodd" d="M0.333496 6.50129C0.333496 2.29503 2.66683 0.191895 7.3335 0.191895H16.6668C21.3335 0.191895 23.6668 2.29503 23.6668 6.50129V11.7591C23.6668 15.9654 21.3335 18.0685 16.6668 18.0685H16.0835C15.7218 18.0685 15.3718 18.2263 15.1502 18.4891L13.4002 20.5923C12.6302 21.5177 11.3702 21.5177 10.6002 20.5923L8.85016 18.4891C8.6635 18.2578 8.2435 18.0685 7.91683 18.0685H7.3335C2.66683 18.0685 0.333496 17.017 0.333496 11.7591V6.50129ZM7.3335 12.2639C7.55516 12.2639 7.77683 12.1903 7.95183 12.0325C8.29016 11.7276 8.29016 11.2228 7.95183 10.9179L6.23683 9.37207L7.95183 7.82626C8.29016 7.52131 8.29016 7.01656 7.95183 6.7116C7.6135 6.40665 7.0535 6.40665 6.71516 6.7116L4.38183 8.81474C4.0435 9.11969 4.0435 9.62444 4.38183 9.92939L6.71516 12.0325C6.89016 12.1903 7.11183 12.2639 7.3335 12.2639ZM11.6385 12.1377C11.4985 12.4321 11.1718 12.6109 10.8335 12.6109C10.7168 12.6109 10.6002 12.5899 10.4835 12.5478C10.0402 12.3795 9.83016 11.9169 10.0285 11.5067L12.3618 6.59593C12.5485 6.19634 13.0618 6.00705 13.5168 6.18582C13.9602 6.36459 14.1585 6.82728 13.9718 7.22687L11.6385 12.1377ZM16.6668 12.2639C16.8885 12.2639 17.1102 12.1903 17.2852 12.0325L19.6185 9.92939C19.9568 9.62444 19.9568 9.11969 19.6185 8.81474L17.2852 6.7116C16.9468 6.40665 16.3868 6.40665 16.0485 6.7116C15.7102 7.01656 15.7102 7.52131 16.0485 7.82626L17.7635 9.37207L16.0485 10.9179C15.7102 11.2228 15.7102 11.7276 16.0485 12.0325C16.2235 12.1903 16.4452 12.2639 16.6668 12.2639Z" fill="#292D32"/>
</svg>
