<svg width="28" height="26" viewBox="0 0 28 26" fill="none" xmlns="http://www.w3.org/2000/svg">
<path d="M19.1568 17.656C16.3102 20.2218 11.6902 20.2218 8.8435 17.656C5.99683 15.0902 5.99683 10.926 8.8435 8.36016C11.6902 5.79434 16.3102 5.79434 19.1568 8.36016C22.0035 10.926 22.0035 15.0902 19.1568 17.656Z" fill="#292D32"/>
<path d="M9.29853 23.4921C6.67353 22.5457 4.5502 20.8737 3.12687 18.6654C1.7502 16.5097 1.20187 14.07 1.56353 11.5883C1.62187 11.1572 2.07687 10.8522 2.54353 10.9048C3.02187 10.9574 3.3602 11.357 3.30187 11.7881C2.99853 13.9228 3.4652 16.0259 4.64353 17.8767C5.85687 19.7695 7.68853 21.2102 9.9402 22.0199C10.3835 22.1881 10.6052 22.6403 10.4302 23.0504C10.3019 23.3554 9.96353 23.5446 9.6252 23.5446C9.5202 23.5446 9.40353 23.5236 9.29853 23.4921Z" fill="#292D32"/>
<path d="M6.13671 5.19483C5.83337 4.85833 5.90337 4.36409 6.28837 4.09069C8.50504 2.52385 11.1767 1.69312 14 1.69312C16.7534 1.69312 19.3784 2.49231 21.5834 4.00656C21.9684 4.26945 22.0384 4.76369 21.7467 5.11071C21.455 5.45772 20.9067 5.52082 20.5217 5.25792C18.62 3.95398 16.3684 3.27046 14 3.27046C11.5734 3.27046 9.27504 3.98553 7.36171 5.33153C7.19837 5.44721 7.01171 5.49978 6.82504 5.49978C6.56837 5.49978 6.31171 5.39463 6.13671 5.19483Z" fill="#292D32"/>
<path d="M17.5585 23.0504C17.3835 22.6508 17.5935 22.1881 18.0485 22.0199C20.3002 21.1996 22.1318 19.7695 23.3452 17.8767C24.5352 16.0259 25.0018 13.9228 24.6868 11.7986C24.6285 11.3675 24.9668 10.9679 25.4451 10.9153C25.9118 10.8627 26.3668 11.1677 26.4251 11.5988C26.7752 14.07 26.2385 16.5202 24.8618 18.6759C23.4501 20.8842 21.3152 22.5456 18.6902 23.5026C18.5968 23.5236 18.4918 23.5446 18.3752 23.5446C18.0252 23.5446 17.6985 23.3553 17.5585 23.0504Z" fill="#292D32"/>
</svg>
